  0
SECTION
  2
HEADER
  9
$ACADVER
  1
AC1024
  9
$ACADMAINTVER
 70
     6
  9
$DWGCODEPAGE
  3
ANSI_1252
  9
$INSBASE
 10
0.0
 20
0.0
 30
0.0
  9
$EXTMIN
 10
1.000000000000000E+20
 20
1.000000000000000E+20
 30
1.000000000000000E+20
  9
$EXTMAX
 10
-1.000000000000000E+20
 20
-1.000000000000000E+20
 30
-1.000000000000000E+20
  9
$LIMMIN
 10
0.0
 20
0.0
  9
$LIMMAX
 10
12.0
 20
9.0
  9
$ORTHOMODE
 70
     0
  9
$REGENMODE
 70
     1
  9
$FILLMODE
 70
     1
  9
$QTEXTMODE
 70
     0
  9
$MIRRTEXT
 70
     1
  9
$LTSCALE
 40
1.0
  9
$ATTMODE
 70
     1
  9
$TEXTSIZE
 40
0.2
  9
$TRACEWID
 40
0.05
  9
$TEXTSTYLE
  7
Standard
  9
$CLAYER
  8
0
  9
$CELTYPE
  6
ByLayer
  9
$CECOLOR
 62
   256
  9
$CELTSCALE
 40
1.0
  9
$DISPSILH
 70
     0
  9
$DIMSCALE
 40
1.0
  9
$DIMASZ
 40
0.18
  9
$DIMEXO
 40
0.0625
  9
$DIMDLI
 40
0.38
  9
$DIMRND
 40
0.0
  9
$DIMDLE
 40
0.0
  9
$DIMEXE
 40
0.18
  9
$DIMTP
 40
0.0
  9
$DIMTM
 40
0.0
  9
$DIMTXT
 40
0.18
  9
$DIMCEN
 40
0.09
  9
$DIMTSZ
 40
0.0
  9
$DIMTOL
 70
     0
  9
$DIMLIM
 70
     0
  9
$DIMTIH
 70
     1
  9
$DIMTOH
 70
     1
  9
$DIMSE1
 70
     0
  9
$DIMSE2
 70
     0
  9
$DIMTAD
 70
     0
  9
$DIMZIN
 70
     0
  9
$DIMBLK
  1

  9
$DIMASO
 70
     1
  9
$DIMSHO
 70
     1
  9
$DIMPOST
  1

  9
$DIMAPOST
  1

  9
$DIMALT
 70
     0
  9
$DIMALTD
 70
     2
  9
$DIMALTF
 40
25.4
  9
$DIMLFAC
 40
1.0
  9
$DIMTOFL
 70
     0
  9
$DIMTVP
 40
0.0
  9
$DIMTIX
 70
     0
  9
$DIMSOXD
 70
     0
  9
$DIMSAH
 70
     0
  9
$DIMBLK1
  1

  9
$DIMBLK2
  1

  9
$DIMSTYLE
  2
Standard
  9
$DIMCLRD
 70
     0
  9
$DIMCLRE
 70
     0
  9
$DIMCLRT
 70
     0
  9
$DIMTFAC
 40
1.0
  9
$DIMGAP
 40
0.09
  9
$DIMJUST
 70
     0
  9
$DIMSD1
 70
     0
  9
$DIMSD2
 70
     0
  9
$DIMTOLJ
 70
     1
  9
$DIMTZIN
 70
     0
  9
$DIMALTZ
 70
     0
  9
$DIMALTTZ
 70
     0
  9
$DIMUPT
 70
     0
  9
$DIMDEC
 70
     4
  9
$DIMTDEC
 70
     4
  9
$DIMALTU
 70
     2
  9
$DIMALTTD
 70
     2
  9
$DIMTXSTY
  7
Standard
  9
$DIMAUNIT
 70
     0
  9
$DIMADEC
 70
     0
  9
$DIMALTRND
 40
0.0
  9
$DIMAZIN
 70
     0
  9
$DIMDSEP
 70
    46
  9
$DIMATFIT
 70
     3
  9
$DIMFRAC
 70
     0
  9
$DIMLDRBLK
  1

  9
$DIMLUNIT
 70
     2
  9
$DIMLWD
 70
    -2
  9
$DIMLWE
 70
    -2
  9
$DIMTMOVE
 70
     0
  9
$DIMFXL
 40
1.0
  9
$DIMFXLON
 70
     0
  9
$DIMJOGANG
 40
0.7853981633974483
  9
$DIMTFILL
 70
     0
  9
$DIMTFILLCLR
 70
     0
  9
$DIMARCSYM
 70
     0
  9
$DIMLTYPE
  6

  9
$DIMLTEX1
  6

  9
$DIMLTEX2
  6

  9
$DIMTXTDIRECTION
 70
     0
  9
$LUNITS
 70
     2
  9
$LUPREC
 70
     4
  9
$SKETCHINC
 40
0.1
  9
$FILLETRAD
 40
0.5
  9
$AUNITS
 70
     0
  9
$AUPREC
 70
     0
  9
$MENU
  1
.
  9
$ELEVATION
 40
0.0
  9
$PELEVATION
 40
0.0
  9
$THICKNESS
 40
0.0
  9
$LIMCHECK
 70
     0
  9
$CHAMFERA
 40
0.5
  9
$CHAMFERB
 40
0.5
  9
$CHAMFERC
 40
1.0
  9
$CHAMFERD
 40
0.0
  9
$SKPOLY
 70
     0
  9
$TDCREATE
 40
2458938.061424537
  9
$TDUCREATE
 40
2458938.311424537
  9
$TDUPDATE
 40
2458938.061424595
  9
$TDUUPDATE
 40
2458938.311424595
  9
$TDINDWG
 40
0.0000000116
  9
$TDUSRTIMER
 40
0.0000000116
  9
$USRTIMER
 70
     1
  9
$ANGBASE
 50
0.0
  9
$ANGDIR
 70
     0
  9
$PDMODE
 70
     0
  9
$PDSIZE
 40
0.0
  9
$PLINEWID
 40
0.0
  9
$SPLFRAME
 70
     0
  9
$SPLINETYPE
 70
     6
  9
$SPLINESEGS
 70
     8
  9
$HANDSEED
  5
44
  9
$SURFTAB1
 70
     6
  9
$SURFTAB2
 70
     6
  9
$SURFTYPE
 70
     6
  9
$SURFU
 70
     6
  9
$SURFV
 70
     6
  9
$UCSBASE
  2

  9
$UCSNAME
  2

  9
$UCSORG
 10
0.0
 20
0.0
 30
0.0
  9
$UCSXDIR
 10
1.0
 20
0.0
 30
0.0
  9
$UCSYDIR
 10
0.0
 20
1.0
 30
0.0
  9
$UCSORTHOREF
  2

  9
$UCSORTHOVIEW
 70
     0
  9
$UCSORGTOP
 10
0.0
 20
0.0
 30
0.0
  9
$UCSORGBOTTOM
 10
0.0
 20
0.0
 30
0.0
  9
$UCSORGLEFT
 10
0.0
 20
0.0
 30
0.0
  9
$UCSORGRIGHT
 10
0.0
 20
0.0
 30
0.0
  9
$UCSORGFRONT
 10
0.0
 20
0.0
 30
0.0
  9
$UCSORGBACK
 10
0.0
 20
0.0
 30
0.0
  9
$PUCSBASE
  2

  9
$PUCSNAME
  2

  9
$PUCSORG
 10
0.0
 20
0.0
 30
0.0
  9
$PUCSXDIR
 10
1.0
 20
0.0
 30
0.0
  9
$PUCSYDIR
 10
0.0
 20
1.0
 30
0.0
  9
$PUCSORTHOREF
  2

  9
$PUCSORTHOVIEW
 70
     0
  9
$PUCSORGTOP
 10
0.0
 20
0.0
 30
0.0
  9
$PUCSORGBOTTOM
 10
0.0
 20
0.0
 30
0.0
  9
$PUCSORGLEFT
 10
0.0
 20
0.0
 30
0.0
  9
$PUCSORGRIGHT
 10
0.0
 20
0.0
 30
0.0
  9
$PUCSORGFRONT
 10
0.0
 20
0.0
 30
0.0
  9
$PUCSORGBACK
 10
0.0
 20
0.0
 30
0.0
  9
$USERI1
 70
     0
  9
$USERI2
 70
     0
  9
$USERI3
 70
     0
  9
$USERI4
 70
     0
  9
$USERI5
 70
     0
  9
$USERR1
 40
0.0
  9
$USERR2
 40
0.0
  9
$USERR3
 40
0.0
  9
$USERR4
 40
0.0
  9
$USERR5
 40
0.0
  9
$WORLDVIEW
 70
     1
  9
$SHADEDGE
 70
     3
  9
$SHADEDIF
 70
    70
  9
$TILEMODE
 70
     1
  9
$MAXACTVP
 70
    64
  9
$PINSBASE
 10
0.0
 20
0.0
 30
0.0
  9
$PLIMCHECK
 70
     0
  9
$PEXTMIN
 10
1.000000000000000E+20
 20
1.000000000000000E+20
 30
1.000000000000000E+20
  9
$PEXTMAX
 10
-1.000000000000000E+20
 20
-1.000000000000000E+20
 30
-1.000000000000000E+20
  9
$PLIMMIN
 10
0.0
 20
0.0
  9
$PLIMMAX
 10
12.0
 20
9.0
  9
$UNITMODE
 70
     0
  9
$VISRETAIN
 70
     1
  9
$PLINEGEN
 70
     0
  9
$PSLTSCALE
 70
     1
  9
$TREEDEPTH
 70
  3020
  9
$CMLSTYLE
  2
Standard
  9
$CMLJUST
 70
     0
  9
$CMLSCALE
 40
1.0
  9
$PROXYGRAPHICS
 70
     1
  9
$MEASUREMENT
 70
     0
  9
$CELWEIGHT
370
    -1
  9
$ENDCAPS
280
     0
  9
$JOINSTYLE
280
     0
  9
$LWDISPLAY
290
     1
  9
$INSUNITS
 70
     4
  9
$HYPERLINKBASE
  1

  9
$STYLESHEET
  1

  9
$XEDIT
290
     1
  9
$CEPSNTYPE
380
     0
  9
$PSTYLEMODE
290
     1
  9
$FINGERPRINTGUID
  2
{E6899759-2F0A-4601-9A25-EEE54F4C246B}
  9
$VERSIONGUID
  2
{FAEB1C32-E019-11D5-929B-00C0DF256EC4}
  9
$EXTNAMES
290
     1
  9
$PSVPSCALE
 40
0.0
  9
$OLESTARTUP
290
     0
  9
$SORTENTS
280
   127
  9
$INDEXCTL
280
     0
  9
$HIDETEXT
280
     1
  9
$XCLIPFRAME
280
     2
  9
$HALOGAP
280
     0
  9
$OBSCOLOR
 70
   257
  9
$OBSLTYPE
280
     0
  9
$INTERSECTIONDISPLAY
280
     0
  9
$INTERSECTIONCOLOR
 70
   257
  9
$DIMASSOC
280
     2
  9
$PROJECTNAME
  1

  9
$CAMERADISPLAY
290
     0
  9
$LENSLENGTH
 40
50.0
  9
$CAMERAHEIGHT
 40
0.0
  9
$STEPSPERSEC
 40
2.0
  9
$STEPSIZE
 40
6.0
  9
$3DDWFPREC
 40
2.0
  9
$PSOLWIDTH
 40
0.25
  9
$PSOLHEIGHT
 40
4.0
  9
$LOFTANG1
 40
1.570796326794897
  9
$LOFTANG2
 40
1.570796326794897
  9
$LOFTMAG1
 40
0.0
  9
$LOFTMAG2
 40
0.0
  9
$LOFTPARAM
 70
     7
  9
$LOFTNORMALS
280
     1
  9
$LATITUDE
 40
37.795
  9
$LONGITUDE
 40
-122.394
  9
$NORTHDIRECTION
 40
0.0
  9
$TIMEZONE
 70
 -8000
  9
$LIGHTGLYPHDISPLAY
280
     1
  9
$TILEMODELIGHTSYNCH
280
     1
  9
$CMATERIAL
347
3C
  9
$SOLIDHIST
280
     1
  9
$SHOWHIST
280
     1
  9
$DWFFRAME
280
     2
  9
$DGNFRAME
280
     2
  9
$REALWORLDSCALE
290
     1
  9
$INTERFERECOLOR
 62
   256
  9
$CSHADOW
280
     0
  9
$SHADOWPLANELOCATION
 40
0.0
  0
ENDSEC
  0
SECTION
  2
CLASSES
  0
CLASS
  1
ACDBDICTIONARYWDFLT
  2
AcDbDictionaryWithDefault
  3
ObjectDBX Classes
 90
        0
 91
        4
280
     0
281
     0
  0
CLASS
  1
VISUALSTYLE
  2
AcDbVisualStyle
  3
ObjectDBX Classes
 90
     4095
 91
        4
280
     0
281
     0
  0
CLASS
  1
MATERIAL
  2
AcDbMaterial
  3
ObjectDBX Classes
 90
     1153
 91
        4
280
     0
281
     0
  0
CLASS
  1
SUN
  2
AcDbSun
  3
SCENEOE
 90
     1024
 91
        4
280
     0
281
     0
  0
ENDSEC
  0
SECTION
  2
TABLES
  0
TABLE
  2
VPORT
  5
8
330
0
100
AcDbSymbolTable
 70
     1
  0
VPORT
  5
29
330
8
100
AcDbSymbolTableRecord
100
AcDbViewportTableRecord
  2
*Active
 70
     0
 10
0.0
 20
0.0
 11
1.0
 21
1.0
 12
0.0
 22
0.0
 13
0.0
 23
0.0
 14
0.5
 24
0.5
 15
0.5
 25
0.5
 16
0.0
 26
0.0
 36
1.0
 17
2.982361110365866
 27
-1.453194444081975
 37
0.0
 40
5.740833331898145
 41
1.149610490153501
 42
50.0
 43
0.0
 44
0.0
 50
0.0
 51
0.0
 71
     0
 72
   100
 73
     1
 74
     3
 75
     0
 76
     0
 77
     0
 78
     0
281
     0
 65
     1
110
0.0
120
0.0
130
0.0
111
1.0
121
0.0
131
0.0
112
0.0
122
1.0
132
0.0
 79
     0
146
0.0
 60
     3
 61
     5
292
     1
282
     1
141
0.0
142
0.0
 63
   250
361
3F
  0
ENDTAB
  0
TABLE
  2
LTYPE
  5
5
330
0
100
AcDbSymbolTable
 70
     1
  0
LTYPE
  5
14
330
5
100
AcDbSymbolTableRecord
100
AcDbLinetypeTableRecord
  2
ByBlock
 70
     0
  3

 72
    65
 73
     0
 40
0.0
  0
LTYPE
  5
15
330
5
100
AcDbSymbolTableRecord
100
AcDbLinetypeTableRecord
  2
ByLayer
 70
     0
  3

 72
    65
 73
     0
 40
0.0
  0
LTYPE
  5
16
330
5
100
AcDbSymbolTableRecord
100
AcDbLinetypeTableRecord
  2
Continuous
 70
     0
  3
Solid line
 72
    65
 73
     0
 40
0.0
  0
ENDTAB
  0
TABLE
  2
LAYER
  5
2
330
0
100
AcDbSymbolTable
 70
     2
  0
LAYER
  5
10
330
2
100
AcDbSymbolTableRecord
100
AcDbLayerTableRecord
  2
0
 70
     0
 62
     7
  6
Continuous
370
    -3
390
F
347
3E
  0
LAYER
  5
40
330
2
100
AcDbSymbolTableRecord
100
AcDbLayerTableRecord
  2
Capa 1
 70
     0
 62
     7
  6
Continuous
370
    -3
390
F
347
3E
  0
ENDTAB
  0
TABLE
  2
STYLE
  5
3
330
0
100
AcDbSymbolTable
 70
     1
  0
STYLE
  5
11
330
3
100
AcDbSymbolTableRecord
100
AcDbTextStyleTableRecord
  2
Standard
 70
     0
 40
0.0
 41
1.0
 50
0.0
 71
     0
 42
0.2
  3
txt
  4

  0
ENDTAB
  0
TABLE
  2
VIEW
  5
6
330
0
100
AcDbSymbolTable
 70
     0
  0
ENDTAB
  0
TABLE
  2
UCS
  5
7
330
0
100
AcDbSymbolTable
 70
     0
  0
ENDTAB
  0
TABLE
  2
APPID
  5
9
330
0
100
AcDbSymbolTable
 70
     1
  0
APPID
  5
12
330
9
100
AcDbSymbolTableRecord
100
AcDbRegAppTableRecord
  2
ACAD
 70
     0
  0
ENDTAB
  0
TABLE
  2
DIMSTYLE
  5
A
330
0
100
AcDbSymbolTable
 70
     1
100
AcDbDimStyleTable
  0
DIMSTYLE
105
27
330
A
100
AcDbSymbolTableRecord
100
AcDbDimStyleTableRecord
  2
Standard
 70
     0
178
     0
340
11
  0
ENDTAB
  0
TABLE
  2
BLOCK_RECORD
  5
1
330
0
100
AcDbSymbolTable
 70
     1
  0
BLOCK_RECORD
  5
1F
330
1
100
AcDbSymbolTableRecord
100
AcDbBlockTableRecord
  2
*Model_Space
340
22
 70
     0
280
     1
281
     0
  0
BLOCK_RECORD
  5
1B
330
1
100
AcDbSymbolTableRecord
100
AcDbBlockTableRecord
  2
*Paper_Space
340
1E
 70
     0
280
     1
281
     0
  0
BLOCK_RECORD
  5
23
330
1
100
AcDbSymbolTableRecord
100
AcDbBlockTableRecord
  2
*Paper_Space0
340
26
 70
     0
280
     1
281
     0
  0
ENDTAB
  0
ENDSEC
  0
SECTION
  2
BLOCKS
  0
BLOCK
  5
20
330
1F
100
AcDbEntity
  8
0
100
AcDbBlockBegin
  2
*Model_Space
 70
     0
 10
0.0
 20
0.0
 30
0.0
  3
*Model_Space
  1

  0
ENDBLK
  5
21
330
1F
100
AcDbEntity
  8
0
100
AcDbBlockEnd
  0
BLOCK
  5
1C
330
1B
100
AcDbEntity
 67
     1
  8
0
100
AcDbBlockBegin
  2
*Paper_Space
 70
     0
 10
0.0
 20
0.0
 30
0.0
  3
*Paper_Space
  1

  0
ENDBLK
  5
1D
330
1B
100
AcDbEntity
 67
     1
  8
0
100
AcDbBlockEnd
  0
BLOCK
  5
24
330
23
100
AcDbEntity
  8
0
100
AcDbBlockBegin
  2
*Paper_Space0
 70
     0
 10
0.0
 20
0.0
 30
0.0
  3
*Paper_Space0
  1

  0
ENDBLK
  5
25
330
23
100
AcDbEntity
  8
0
100
AcDbBlockEnd
  0
ENDSEC
  0
SECTION
  2
ENTITIES
  0
SPLINE
  5
41
330
1F
100
AcDbEntity
  8
Capa 1
 62
    18
420
   458752
370
    35
100
AcDbSpline
210
0.0
220
0.0
230
1.0
 70
    11
 71
     3
 72
   335
 73
   331
 74
     0
 42
0.0000000001
 43
0.0000000001
 12
1.0
 22
0.0
 32
0.0
 13
1.0
 23
0.0
 33
0.0
 40
0.0
 40
0.0
 40
0.0
 40
0.0
 40
1.0
 40
1.0
 40
1.0
 40
2.0
 40
2.0
 40
2.0
 40
3.0
 40
3.0
 40
3.0
 40
4.0
 40
4.0
 40
4.0
 40
5.0
 40
5.0
 40
5.0
 40
6.0
 40
6.0
 40
6.0
 40
7.0
 40
7.0
 40
7.0
 40
8.0
 40
8.0
 40
8.0
 40
9.0
 40
9.0
 40
9.0
 40
10.0
 40
10.0
 40
10.0
 40
11.0
 40
11.0
 40
11.0
 40
12.0
 40
12.0
 40
12.0
 40
13.0
 40
13.0
 40
13.0
 40
14.0
 40
14.0
 40
14.0
 40
15.0
 40
15.0
 40
15.0
 40
16.0
 40
16.0
 40
16.0
 40
17.0
 40
17.0
 40
17.0
 40
18.0
 40
18.0
 40
18.0
 40
19.0
 40
19.0
 40
19.0
 40
20.0
 40
20.0
 40
20.0
 40
21.0
 40
21.0
 40
21.0
 40
22.0
 40
22.0
 40
22.0
 40
23.0
 40
23.0
 40
23.0
 40
24.0
 40
24.0
 40
24.0
 40
25.0
 40
25.0
 40
25.0
 40
26.0
 40
26.0
 40
26.0
 40
27.0
 40
27.0
 40
27.0
 40
28.0
 40
28.0
 40
28.0
 40
29.0
 40
29.0
 40
29.0
 40
30.0
 40
30.0
 40
30.0
 40
31.0
 40
31.0
 40
31.0
 40
32.0
 40
32.0
 40
32.0
 40
33.0
 40
33.0
 40
33.0
 40
34.0
 40
34.0
 40
34.0
 40
35.0
 40
35.0
 40
35.0
 40
36.0
 40
36.0
 40
36.0
 40
37.0
 40
37.0
 40
37.0
 40
38.0
 40
38.0
 40
38.0
 40
39.0
 40
39.0
 40
39.0
 40
40.0
 40
40.0
 40
40.0
 40
41.0
 40
41.0
 40
41.0
 40
42.0
 40
42.0
 40
42.0
 40
43.0
 40
43.0
 40
43.0
 40
44.0
 40
44.0
 40
44.0
 40
45.0
 40
45.0
 40
45.0
 40
46.0
 40
46.0
 40
46.0
 40
47.0
 40
47.0
 40
47.0
 40
48.0
 40
48.0
 40
48.0
 40
49.0
 40
49.0
 40
49.0
 40
50.0
 40
50.0
 40
50.0
 40
51.0
 40
51.0
 40
51.0
 40
52.0
 40
52.0
 40
52.0
 40
53.0
 40
53.0
 40
53.0
 40
54.0
 40
54.0
 40
54.0
 40
55.0
 40
55.0
 40
55.0
 40
56.0
 40
56.0
 40
56.0
 40
57.0
 40
57.0
 40
57.0
 40
58.0
 40
58.0
 40
58.0
 40
59.0
 40
59.0
 40
59.0
 40
60.0
 40
60.0
 40
60.0
 40
61.0
 40
61.0
 40
61.0
 40
62.0
 40
62.0
 40
62.0
 40
63.0
 40
63.0
 40
63.0
 40
64.0
 40
64.0
 40
64.0
 40
65.0
 40
65.0
 40
65.0
 40
66.0
 40
66.0
 40
66.0
 40
67.0
 40
67.0
 40
67.0
 40
68.0
 40
68.0
 40
68.0
 40
69.0
 40
69.0
 40
69.0
 40
70.0
 40
70.0
 40
70.0
 40
71.0
 40
71.0
 40
71.0
 40
72.0
 40
72.0
 40
72.0
 40
73.0
 40
73.0
 40
73.0
 40
74.0
 40
74.0
 40
74.0
 40
75.0
 40
75.0
 40
75.0
 40
76.0
 40
76.0
 40
76.0
 40
77.0
 40
77.0
 40
77.0
 40
78.0
 40
78.0
 40
78.0
 40
79.0
 40
79.0
 40
79.0
 40
80.0
 40
80.0
 40
80.0
 40
81.0
 40
81.0
 40
81.0
 40
82.0
 40
82.0
 40
82.0
 40
83.0
 40
83.0
 40
83.0
 40
84.0
 40
84.0
 40
84.0
 40
85.0
 40
85.0
 40
85.0
 40
86.0
 40
86.0
 40
86.0
 40
87.0
 40
87.0
 40
87.0
 40
88.0
 40
88.0
 40
88.0
 40
89.0
 40
89.0
 40
89.0
 40
90.0
 40
90.0
 40
90.0
 40
91.0
 40
91.0
 40
91.0
 40
92.0
 40
92.0
 40
92.0
 40
93.0
 40
93.0
 40
93.0
 40
94.0
 40
94.0
 40
94.0
 40
95.0
 40
95.0
 40
95.0
 40
96.0
 40
96.0
 40
96.0
 40
97.0
 40
97.0
 40
97.0
 40
98.0
 40
98.0
 40
98.0
 40
99.0
 40
99.0
 40
99.0
 40
100.0
 40
100.0
 40
100.0
 40
101.0
 40
101.0
 40
101.0
 40
102.0
 40
102.0
 40
102.0
 40
103.0
 40
103.0
 40
103.0
 40
104.0
 40
104.0
 40
104.0
 40
105.0
 40
105.0
 40
105.0
 40
106.0
 40
106.0
 40
106.0
 40
107.0
 40
107.0
 40
107.0
 40
108.0
 40
108.0
 40
108.0
 40
109.0
 40
109.0
 40
109.0
 40
110.0
 40
110.0
 40
110.0
 40
110.0
 10
6.226527776221147
 20
-0.2194353569329884
 30
0.0
 10
6.226527776221147
 20
-0.2194353569329884
 30
0.0
 10
6.226527776221147
 20
-0.0763949923854152
 30
0.0
 10
6.226527776221147
 20
-0.0763949923854152
 30
0.0
 10
6.226527776221147
 20
0.0300563049241266
 30
0.0
 10
6.139918075721965
 20
0.1166660054233075
 30
0.0
 10
6.033464625227746
 20
0.1166660054233075
 30
0.0
 10
6.033464625227746
 20
0.1166660054233075
 30
0.0
 10
5.751666580457701
 20
0.1166660054233075
 30
0.0
 10
5.751666580457701
 20
0.1166660054233075
 30
0.0
 10
5.751666580457701
 20
0.1166660054233075
 30
0.0
 10
5.751666580457701
 20
0.3844446647530642
 30
0.0
 10
5.751666580457701
 20
0.3844446647530642
 30
0.0
 10
5.751666580457701
 20
0.6174580042672936
 30
0.0
 10
5.59469295785697
 20
0.8133827376981301
 30
0.0
 10
5.380866647010904
 20
0.8734285988213565
 30
0.0
 10
5.380965693506105
 20
0.8759542844489803
 30
0.0
 10
5.381249913883638
 20
0.8784304468290036
 30
0.0
 10
5.381249913883638
 20
0.8809798174880885
 30
0.0
 10
5.381249913883638
 20
0.8809798174880885
 30
0.0
 10
5.381249913883638
 20
1.165131293111495
 30
0.0
 10
5.381249913883638
 20
1.165131293111495
 30
0.0
 10
5.381249913883638
 20
1.271584743605715
 30
0.0
 10
5.294640213384457
 20
1.358194444104896
 30
0.0
 10
5.188186762890237
 20
1.358194444104896
 30
0.0
 10
5.188186762890237
 20
1.358194444104896
 30
0.0
 10
5.045146398342664
 20
1.358194444104896
 30
0.0
 10
5.045146398342664
 20
1.358194444104896
 30
0.0
 10
4.938692947848444
 20
1.358194444104896
 30
0.0
 10
4.852083247349263
 20
1.271584743605715
 30
0.0
 10
4.852083247349263
 20
1.165131293111495
 30
0.0
 10
4.852083247349263
 20
1.271584743605715
 30
0.0
 10
4.765473546850082
 20
1.358194444104896
 30
0.0
 10
4.659020096355862
 20
1.358194444104896
 30
0.0
 10
4.659020096355862
 20
1.358194444104896
 30
0.0
 10
4.515979731808288
 20
1.358194444104896
 30
0.0
 10
4.515979731808288
 20
1.358194444104896
 30
0.0
 10
4.409526281314069
 20
1.358194444104896
 30
0.0
 10
4.322916580814888
 20
1.271584743605715
 30
0.0
 10
4.322916580814888
 20
1.165131293111495
 30
0.0
 10
4.322916580814888
 20
1.271584743605715
 30
0.0
 10
4.236306880315706
 20
1.358194444104896
 30
0.0
 10
4.129853429821487
 20
1.358194444104896
 30
0.0
 10
4.129853429821487
 20
1.358194444104896
 30
0.0
 10
3.986813065273914
 20
1.358194444104896
 30
0.0
 10
3.986813065273914
 20
1.358194444104896
 30
0.0
 10
3.880359614779694
 20
1.358194444104896
 30
0.0
 10
3.793749914280513
 20
1.271584743605715
 30
0.0
 10
3.793749914280513
 20
1.165131293111495
 30
0.0
 10
3.793749914280513
 20
1.271584743605715
 30
0.0
 10
3.707140213781332
 20
1.358194444104896
 30
0.0
 10
3.600686763287112
 20
1.358194444104896
 30
0.0
 10
3.600686763287112
 20
1.358194444104896
 30
0.0
 10
3.457646398739538
 20
1.358194444104896
 30
0.0
 10
3.457646398739538
 20
1.358194444104896
 30
0.0
 10
3.351192948245318
 20
1.358194444104896
 30
0.0
 10
3.264583247746137
 20
1.271584743605715
 30
0.0
 10
3.264583247746137
 20
1.165131293111495
 30
0.0
 10
3.264583247746137
 20
1.271584743605715
 30
0.0
 10
3.177973547246957
 20
1.358194444104896
 30
0.0
 10
3.071520096752737
 20
1.358194444104896
 30
0.0
 10
3.071520096752737
 20
1.358194444104896
 30
0.0
 10
2.928479732205163
 20
1.358194444104896
 30
0.0
 10
2.928479732205163
 20
1.358194444104896
 30
0.0
 10
2.822026281710944
 20
1.358194444104896
 30
0.0
 10
2.735416581211763
 20
1.271584743605715
 30
0.0
 10
2.735416581211763
 20
1.165131293111495
 30
0.0
 10
2.735416581211763
 20
1.271584743605715
 30
0.0
 10
2.648806880712582
 20
1.358194444104896
 30
0.0
 10
2.542353430218362
 20
1.358194444104896
 30
0.0
 10
2.542353430218362
 20
1.358194444104896
 30
0.0
 10
2.399313065670788
 20
1.358194444104896
 30
0.0
 10
2.399313065670788
 20
1.358194444104896
 30
0.0
 10
2.292859615176568
 20
1.358194444104896
 30
0.0
 10
2.206249914677387
 20
1.271584743605715
 30
0.0
 10
2.206249914677387
 20
1.165131293111495
 30
0.0
 10
2.206249914677387
 20
1.271584743605715
 30
0.0
 10
2.119640214178207
 20
1.358194444104896
 30
0.0
 10
2.013186763683986
 20
1.358194444104896
 30
0.0
 10
2.013186763683986
 20
1.358194444104896
 30
0.0
 10
1.870146399136413
 20
1.358194444104896
 30
0.0
 10
1.870146399136413
 20
1.358194444104896
 30
0.0
 10
1.763692948642193
 20
1.358194444104896
 30
0.0
 10
1.677083248143012
 20
1.271584743605715
 30
0.0
 10
1.677083248143012
 20
1.165131293111495
 30
0.0
 10
1.677083248143012
 20
1.271584743605715
 30
0.0
 10
1.590473547643831
 20
1.358194444104896
 30
0.0
 10
1.484020097149612
 20
1.358194444104896
 30
0.0
 10
1.484020097149612
 20
1.358194444104896
 30
0.0
 10
1.340979732602038
 20
1.358194444104896
 30
0.0
 10
1.340979732602038
 20
1.358194444104896
 30
0.0
 10
1.234526282107818
 20
1.358194444104896
 30
0.0
 10
1.147916581608637
 20
1.271584743605715
 30
0.0
 10
1.147916581608637
 20
1.165131293111495
 30
0.0
 10
1.147916581608637
 20
1.271584743605715
 30
0.0
 10
1.061306881109456
 20
1.358194444104896
 30
0.0
 10
0.9548534306152364
 20
1.358194444104896
 30
0.0
 10
0.9548534306152364
 20
1.358194444104896
 30
0.0
 10
0.8118130660676631
 20
1.358194444104896
 30
0.0
 10
0.8118130660676631
 20
1.358194444104896
 30
0.0
 10
0.7053596155734432
 20
1.358194444104896
 30
0.0
 10
0.6187499150742622
 20
1.271584743605715
 30
0.0
 10
0.6187499150742622
 20
1.165131293111495
 30
0.0
 10
0.6187499150742622
 20
1.165131293111495
 30
0.0
 10
0.6187499150742622
 20
0.8809798174880885
 30
0.0
 10
0.6187499150742622
 20
0.8809798174880885
 30
0.0
 10
0.6187499150742622
 20
0.8784304468290036
 30
0.0
 10
0.6190341354517953
 20
0.8759542844489803
 30
0.0
 10
0.6191331819469963
 20
0.8734285988213565
 30
0.0
 10
0.4053068711009303
 20
0.8133827376981301
 30
0.0
 10
0.2483332485001997
 20
0.6174580042672936
 30
0.0
 10
0.2483332485001997
 20
0.3844446647530642
 30
0.0
 10
0.2483332485001997
 20
0.3844446647530642
 30
0.0
 10
0.2483332485001997
 20
0.1166444735765247
 30
0.0
 10
0.2483332485001997
 20
0.1166444735765247
 30
0.0
 10
0.2481911383114332
 20
0.1166444735765247
 30
0.0
 10
0.2480511813073449
 20
0.1166660054233075
 30
0.0
 10
0.2479090711185783
 20
0.1166660054233075
 30
0.0
 10
0.2479090711185783
 20
0.1166660054233075
 30
0.0
 10
-0.0362424045048283
 20
0.1166660054233075
 30
0.0
 10
-0.0362424045048283
 20
0.1166660054233075
 30
0.0
 10
-0.1426958549990483
 20
0.1166660054233075
 30
0.0
 10
-0.2293055554982292
 20
0.0300563049241266
 30
0.0
 10
-0.2293055554982292
 20
-0.0763949923854152
 30
0.0
 10
-0.2293055554982292
 20
-0.0763949923854152
 30
0.0
 10
-0.2293055554982292
 20
-0.2194353569329884
 30
0.0
 10
-0.2293055554982292
 20
-0.2194353569329884
 30
0.0
 10
-0.2293055554982292
 20
-0.3258888074272084
 30
0.0
 10
-0.1426958549990483
 20
-0.4124985079263893
 30
0.0
 10
-0.0362424045048283
 20
-0.4124985079263893
 30
0.0
 10
-0.1426958549990483
 20
-0.4124985079263893
 30
0.0
 10
-0.2293055554982292
 20
-0.4991082084255702
 30
0.0
 10
-0.2293055554982292
 20
-0.6055616589197902
 30
0.0
 10
-0.2293055554982292
 20
-0.6055616589197902
 30
0.0
 10
-0.2293055554982292
 20
-0.7486020234673635
 30
0.0
 10
-0.2293055554982292
 20
-0.7486020234673635
 30
0.0
 10
-0.2293055554982292
 20
-0.8550554739615834
 30
0.0
 10
-0.1426958549990483
 20
-0.9416651744607644
 30
0.0
 10
-0.0362424045048283
 20
-0.9416651744607644
 30
0.0
 10
-0.1426958549990483
 20
-0.9416651744607644
 30
0.0
 10
-0.2293055554982292
 20
-1.028274874959945
 30
0.0
 10
-0.2293055554982292
 20
-1.134728325454165
 30
0.0
 10
-0.2293055554982292
 20
-1.134728325454165
 30
0.0
 10
-0.2293055554982292
 20
-1.277768690001739
 30
0.0
 10
-0.2293055554982292
 20
-1.277768690001739
 30
0.0
 10
-0.2293055554982292
 20
-1.384222140495958
 30
0.0
 10
-0.1426958549990483
 20
-1.47083184099514
 30
0.0
 10
-0.0362424045048283
 20
-1.47083184099514
 30
0.0
 10
-0.1426958549990483
 20
-1.47083184099514
 30
0.0
 10
-0.2293055554982292
 20
-1.55744154149432
 30
0.0
 10
-0.2293055554982292
 20
-1.66389499198854
 30
0.0
 10
-0.2293055554982292
 20
-1.66389499198854
 30
0.0
 10
-0.2293055554982292
 20
-1.806935356536114
 30
0.0
 10
-0.2293055554982292
 20
-1.806935356536114
 30
0.0
 10
-0.2293055554982292
 20
-1.913388807030334
 30
0.0
 10
-0.1426958549990483
 20
-1.999998507529515
 30
0.0
 10
-0.0362424045048283
 20
-1.999998507529515
 30
0.0
 10
-0.1426958549990483
 20
-1.999998507529515
 30
0.0
 10
-0.2293055554982292
 20
-2.086608208028696
 30
0.0
 10
-0.2293055554982292
 20
-2.193061658522915
 30
0.0
 10
-0.2293055554982292
 20
-2.193061658522915
 30
0.0
 10
-0.2293055554982292
 20
-2.336102023070489
 30
0.0
 10
-0.2293055554982292
 20
-2.336102023070489
 30
0.0
 10
-0.2293055554982292
 20
-2.442555473564709
 30
0.0
 10
-0.1426958549990483
 20
-2.529165174063889
 30
0.0
 10
-0.0362424045048283
 20
-2.529165174063889
 30
0.0
 10
-0.1426958549990483
 20
-2.529165174063889
 30
0.0
 10
-0.2293055554982292
 20
-2.61577487456307
 30
0.0
 10
-0.2293055554982292
 20
-2.72222832505729
 30
0.0
 10
-0.2293055554982292
 20
-2.72222832505729
 30
0.0
 10
-0.2293055554982292
 20
-2.865268689604864
 30
0.0
 10
-0.2293055554982292
 20
-2.865268689604864
 30
0.0
 10
-0.2293055554982292
 20
-2.971722140099084
 30
0.0
 10
-0.1426958549990483
 20
-3.058331840598265
 30
0.0
 10
-0.0362424045048283
 20
-3.058331840598265
 30
0.0
 10
-0.0362424045048283
 20
-3.058331840598265
 30
0.0
 10
0.2479090711185783
 20
-3.058331840598265
 30
0.0
 10
0.2479090711185783
 20
-3.058331840598265
 30
0.0
 10
0.2480511813073449
 20
-3.058331840598265
 30
0.0
 10
0.2481911383114332
 20
-3.058310308751482
 30
0.0
 10
0.2483332485001997
 20
-3.058310308751482
 30
0.0
 10
0.2483332485001997
 20
-3.058310308751482
 30
0.0
 10
0.2483332485001997
 20
-3.326110499928022
 30
0.0
 10
0.2483332485001997
 20
-3.326110499928022
 30
0.0
 10
0.2483332485001997
 20
-3.558986035622841
 30
0.0
 10
0.4051173908492415
 20
-3.754824641666546
 30
0.0
 10
0.6187499150742622
 20
-3.814995387501113
 30
0.0
 10
0.6187499150742622
 20
-3.814995387501113
 30
0.0
 10
0.6187499150742622
 20
-4.093186847935037
 30
0.0
 10
0.6187499150742622
 20
-4.093186847935037
 30
0.0
 10
0.6187499150742622
 20
-4.199640298429257
 30
0.0
 10
0.7053596155734432
 20
-4.286249998928438
 30
0.0
 10
0.8118130660676631
 20
-4.286249998928438
 30
0.0
 10
0.8118130660676631
 20
-4.286249998928438
 30
0.0
 10
0.9548534306152364
 20
-4.286249998928438
 30
0.0
 10
0.9548534306152364
 20
-4.286249998928438
 30
0.0
 10
1.061306881109456
 20
-4.286249998928438
 30
0.0
 10
1.147916581608637
 20
-4.199640298429257
 30
0.0
 10
1.147916581608637
 20
-4.093186847935037
 30
0.0
 10
1.147916581608637
 20
-4.199640298429257
 30
0.0
 10
1.234526282107818
 20
-4.286249998928438
 30
0.0
 10
1.340979732602038
 20
-4.286249998928438
 30
0.0
 10
1.340979732602038
 20
-4.286249998928438
 30
0.0
 10
1.484020097149612
 20
-4.286249998928438
 30
0.0
 10
1.484020097149612
 20
-4.286249998928438
 30
0.0
 10
1.590473547643831
 20
-4.286249998928438
 30
0.0
 10
1.677083248143012
 20
-4.199640298429257
 30
0.0
 10
1.677083248143012
 20
-4.093186847935037
 30
0.0
 10
1.677083248143012
 20
-4.199640298429257
 30
0.0
 10
1.763692948642193
 20
-4.286249998928438
 30
0.0
 10
1.870146399136413
 20
-4.286249998928438
 30
0.0
 10
1.870146399136413
 20
-4.286249998928438
 30
0.0
 10
2.013186763683986
 20
-4.286249998928438
 30
0.0
 10
2.013186763683986
 20
-4.286249998928438
 30
0.0
 10
2.119640214178207
 20
-4.286249998928438
 30
0.0
 10
2.206249914677387
 20
-4.199640298429257
 30
0.0
 10
2.206249914677387
 20
-4.093186847935037
 30
0.0
 10
2.206249914677387
 20
-4.199640298429257
 30
0.0
 10
2.292859615176568
 20
-4.286249998928438
 30
0.0
 10
2.399313065670788
 20
-4.286249998928438
 30
0.0
 10
2.399313065670788
 20
-4.286249998928438
 30
0.0
 10
2.542353430218362
 20
-4.286249998928438
 30
0.0
 10
2.542353430218362
 20
-4.286249998928438
 30
0.0
 10
2.648806880712582
 20
-4.286249998928438
 30
0.0
 10
2.735416581211763
 20
-4.199640298429257
 30
0.0
 10
2.735416581211763
 20
-4.093186847935037
 30
0.0
 10
2.735416581211763
 20
-4.199640298429257
 30
0.0
 10
2.822026281710944
 20
-4.286249998928438
 30
0.0
 10
2.928479732205163
 20
-4.286249998928438
 30
0.0
 10
2.928479732205163
 20
-4.286249998928438
 30
0.0
 10
3.071520096752737
 20
-4.286249998928438
 30
0.0
 10
3.071520096752737
 20
-4.286249998928438
 30
0.0
 10
3.177973547246957
 20
-4.286249998928438
 30
0.0
 10
3.264583247746137
 20
-4.199640298429257
 30
0.0
 10
3.264583247746137
 20
-4.093186847935037
 30
0.0
 10
3.264583247746137
 20
-4.199640298429257
 30
0.0
 10
3.351192948245318
 20
-4.286249998928438
 30
0.0
 10
3.457646398739538
 20
-4.286249998928438
 30
0.0
 10
3.457646398739538
 20
-4.286249998928438
 30
0.0
 10
3.600686763287112
 20
-4.286249998928438
 30
0.0
 10
3.600686763287112
 20
-4.286249998928438
 30
0.0
 10
3.707140213781332
 20
-4.286249998928438
 30
0.0
 10
3.793749914280513
 20
-4.199640298429257
 30
0.0
 10
3.793749914280513
 20
-4.093186847935037
 30
0.0
 10
3.793749914280513
 20
-4.199640298429257
 30
0.0
 10
3.880359614779694
 20
-4.286249998928438
 30
0.0
 10
3.986813065273914
 20
-4.286249998928438
 30
0.0
 10
3.986813065273914
 20
-4.286249998928438
 30
0.0
 10
4.129853429821487
 20
-4.286249998928438
 30
0.0
 10
4.129853429821487
 20
-4.286249998928438
 30
0.0
 10
4.236306880315706
 20
-4.286249998928438
 30
0.0
 10
4.322916580814888
 20
-4.199640298429257
 30
0.0
 10
4.322916580814888
 20
-4.093186847935037
 30
0.0
 10
4.322916580814888
 20
-4.199640298429257
 30
0.0
 10
4.409526281314069
 20
-4.286249998928438
 30
0.0
 10
4.515979731808288
 20
-4.286249998928438
 30
0.0
 10
4.515979731808288
 20
-4.286249998928438
 30
0.0
 10
4.659020096355862
 20
-4.286249998928438
 30
0.0
 10
4.659020096355862
 20
-4.286249998928438
 30
0.0
 10
4.765473546850082
 20
-4.286249998928438
 30
0.0
 10
4.852083247349263
 20
-4.199640298429257
 30
0.0
 10
4.852083247349263
 20
-4.093186847935037
 30
0.0
 10
4.852083247349263
 20
-4.199640298429257
 30
0.0
 10
4.938692947848444
 20
-4.286249998928438
 30
0.0
 10
5.045146398342664
 20
-4.286249998928438
 30
0.0
 10
5.045146398342664
 20
-4.286249998928438
 30
0.0
 10
5.188186762890237
 20
-4.286249998928438
 30
0.0
 10
5.188186762890237
 20
-4.286249998928438
 30
0.0
 10
5.294640213384457
 20
-4.286249998928438
 30
0.0
 10
5.381249913883638
 20
-4.199640298429257
 30
0.0
 10
5.381249913883638
 20
-4.093186847935037
 30
0.0
 10
5.381249913883638
 20
-4.093186847935037
 30
0.0
 10
5.381249913883638
 20
-3.814995387501113
 30
0.0
 10
5.381249913883638
 20
-3.814995387501113
 30
0.0
 10
5.594882438108659
 20
-3.754824641666546
 30
0.0
 10
5.751666580457701
 20
-3.558986035622841
 30
0.0
 10
5.751666580457701
 20
-3.326110499928022
 30
0.0
 10
5.751666580457701
 20
-3.326110499928022
 30
0.0
 10
5.751666580457701
 20
-3.058331840598265
 30
0.0
 10
5.751666580457701
 20
-3.058331840598265
 30
0.0
 10
5.751666580457701
 20
-3.058331840598265
 30
0.0
 10
6.033464625227746
 20
-3.058331840598265
 30
0.0
 10
6.033464625227746
 20
-3.058331840598265
 30
0.0
 10
6.139918075721965
 20
-3.058331840598265
 30
0.0
 10
6.226527776221147
 20
-2.971722140099084
 30
0.0
 10
6.226527776221147
 20
-2.865268689604864
 30
0.0
 10
6.226527776221147
 20
-2.865268689604864
 30
0.0
 10
6.226527776221147
 20
-2.72222832505729
 30
0.0
 10
6.226527776221147
 20
-2.72222832505729
 30
0.0
 10
6.226527776221147
 20
-2.61577487456307
 30
0.0
 10
6.139918075721965
 20
-2.529165174063889
 30
0.0
 10
6.033464625227746
 20
-2.529165174063889
 30
0.0
 10
6.139918075721965
 20
-2.529165174063889
 30
0.0
 10
6.226527776221147
 20
-2.442555473564709
 30
0.0
 10
6.226527776221147
 20
-2.336102023070489
 30
0.0
 10
6.226527776221147
 20
-2.336102023070489
 30
0.0
 10
6.226527776221147
 20
-2.193061658522915
 30
0.0
 10
6.226527776221147
 20
-2.193061658522915
 30
0.0
 10
6.226527776221147
 20
-2.086608208028696
 30
0.0
 10
6.139918075721965
 20
-1.999998507529515
 30
0.0
 10
6.033464625227746
 20
-1.999998507529515
 30
0.0
 10
6.139918075721965
 20
-1.999998507529515
 30
0.0
 10
6.226527776221147
 20
-1.913388807030334
 30
0.0
 10
6.226527776221147
 20
-1.806935356536114
 30
0.0
 10
6.226527776221147
 20
-1.806935356536114
 30
0.0
 10
6.226527776221147
 20
-1.66389499198854
 30
0.0
 10
6.226527776221147
 20
-1.66389499198854
 30
0.0
 10
6.226527776221147
 20
-1.55744154149432
 30
0.0
 10
6.139918075721965
 20
-1.47083184099514
 30
0.0
 10
6.033464625227746
 20
-1.47083184099514
 30
0.0
 10
6.139918075721965
 20
-1.47083184099514
 30
0.0
 10
6.226527776221147
 20
-1.384222140495958
 30
0.0
 10
6.226527776221147
 20
-1.277768690001739
 30
0.0
 10
6.226527776221147
 20
-1.277768690001739
 30
0.0
 10
6.226527776221147
 20
-1.134728325454165
 30
0.0
 10
6.226527776221147
 20
-1.134728325454165
 30
0.0
 10
6.226527776221147
 20
-1.028274874959945
 30
0.0
 10
6.139918075721965
 20
-0.9416651744607644
 30
0.0
 10
6.033464625227746
 20
-0.9416651744607644
 30
0.0
 10
6.139918075721965
 20
-0.9416651744607644
 30
0.0
 10
6.226527776221147
 20
-0.8550554739615834
 30
0.0
 10
6.226527776221147
 20
-0.7486020234673635
 30
0.0
 10
6.226527776221147
 20
-0.7486020234673635
 30
0.0
 10
6.226527776221147
 20
-0.6055616589197902
 30
0.0
 10
6.226527776221147
 20
-0.6055616589197902
 30
0.0
 10
6.226527776221147
 20
-0.4991082084255702
 30
0.0
 10
6.139918075721965
 20
-0.4124985079263893
 30
0.0
 10
6.033464625227746
 20
-0.4124985079263893
 30
0.0
 10
6.139918075721965
 20
-0.4124985079263893
 30
0.0
 10
6.226527776221147
 20
-0.3258888074272084
 30
0.0
 10
6.226527776221147
 20
-0.2194353569329884
 30
0.0
  0
ENDSEC
  0
SECTION
  2
OBJECTS
  0
DICTIONARY
  5
C
330
0
100
AcDbDictionary
281
     1
  3
ACAD_GROUP
350
D
  3
ACAD_LAYOUT
350
1A
  3
ACAD_MATERIAL
350
3B
  3
ACAD_MLEADERSTYLE
350
43
  3
ACAD_MLINESTYLE
350
17
  3
ACAD_PLOTSETTINGS
350
19
  3
ACAD_PLOTSTYLENAME
350
E
  3
ACAD_TABLESTYLE
350
42
  3
ACAD_VISUALSTYLE
350
2A
  0
SUN
  5
3F
330
29
100
AcDbSun
 90
        1
290
     0
 63
     7
421
 16777215
 40
1.0
291
     1
 91
  2455826
 92
 54000000
292
     0
 70
     2
 71
   256
280
     1
  0
DICTIONARY
  5
D
102
{ACAD_REACTORS
330
C
102
}
330
C
100
AcDbDictionary
281
     1
  0
DICTIONARY
  5
1A
102
{ACAD_REACTORS
330
C
102
}
330
C
100
AcDbDictionary
281
     1
  3
Layout1
350
1E
  3
Layout2
350
26
  3
Model
350
22
  0
DICTIONARY
  5
3B
102
{ACAD_REACTORS
330
C
102
}
330
C
100
AcDbDictionary
281
     1
  3
ByBlock
350
3D
  3
ByLayer
350
3C
  3
Global
350
3E
  0
DICTIONARY
  5
43
102
{ACAD_REACTORS
330
C
102
}
330
C
100
AcDbDictionary
281
     1
  0
DICTIONARY
  5
17
102
{ACAD_REACTORS
330
C
102
}
330
C
100
AcDbDictionary
281
     1
  3
Standard
350
18
  0
DICTIONARY
  5
19
102
{ACAD_REACTORS
330
C
102
}
330
C
100
AcDbDictionary
281
     1
  0
ACDBDICTIONARYWDFLT
  5
E
102
{ACAD_REACTORS
330
C
102
}
330
C
100
AcDbDictionary
281
     1
  3
Normal
350
F
100
AcDbDictionaryWithDefault
340
F
  0
DICTIONARY
  5
42
102
{ACAD_REACTORS
330
C
102
}
330
C
100
AcDbDictionary
281
     1
  0
DICTIONARY
  5
2A
102
{ACAD_REACTORS
330
C
102
}
330
C
100
AcDbDictionary
281
     1
  3
2dWireframe
350
2F
  3
3D Hidden
350
31
  3
3dWireframe
350
30
  3
Basic
350
32
  3
Brighten
350
36
  3
ColorChange
350
3A
  3
Conceptual
350
34
  3
Dim
350
35
  3
Facepattern
350
39
  3
Flat
350
2B
  3
FlatWithEdges
350
2C
  3
Gouraud
350
2D
  3
GouraudWithEdges
350
2E
  3
Linepattern
350
38
  3
Realistic
350
33
  3
Thicken
350
37
  0
LAYOUT
  5
1E
102
{ACAD_REACTORS
330
1A
102
}
330
1A
100
AcDbPlotSettings
  1

  2
none_device
  4

  6

 40
0.0
 41
0.0
 42
0.0
 43
0.0
 44
0.0
 45
0.0
 46
0.0
 47
0.0
 48
0.0
 49
0.0
140
0.0
141
0.0
142
1.0
143
1.0
 70
   688
 72
     0
 73
     0
 74
     5
  7

 75
    16
 76
     0
 77
     2
 78
   300
147
1.0
148
0.0
149
0.0
100
AcDbLayout
  1
Layout1
 70
     1
 71
     1
 10
0.0
 20
0.0
 11
12.0
 21
9.0
 12
0.0
 22
0.0
 32
0.0
 14
1.000000000000000E+20
 24
1.000000000000000E+20
 34
1.000000000000000E+20
 15
-1.000000000000000E+20
 25
-1.000000000000000E+20
 35
-1.000000000000000E+20
146
0.0
 13
0.0
 23
0.0
 33
0.0
 16
1.0
 26
0.0
 36
0.0
 17
0.0
 27
1.0
 37
0.0
 76
     0
330
1B
  0
LAYOUT
  5
26
102
{ACAD_REACTORS
330
1A
102
}
330
1A
100
AcDbPlotSettings
  1

  2
none_device
  4

  6

 40
0.0
 41
0.0
 42
0.0
 43
0.0
 44
0.0
 45
0.0
 46
0.0
 47
0.0
 48
0.0
 49
0.0
140
0.0
141
0.0
142
1.0
143
1.0
 70
   688
 72
     0
 73
     0
 74
     5
  7

 75
    16
 76
     0
 77
     2
 78
   300
147
1.0
148
0.0
149
0.0
100
AcDbLayout
  1
Layout2
 70
     1
 71
     2
 10
0.0
 20
0.0
 11
0.0
 21
0.0
 12
0.0
 22
0.0
 32
0.0
 14
0.0
 24
0.0
 34
0.0
 15
0.0
 25
0.0
 35
0.0
146
0.0
 13
0.0
 23
0.0
 33
0.0
 16
1.0
 26
0.0
 36
0.0
 17
0.0
 27
1.0
 37
0.0
 76
     0
330
23
  0
LAYOUT
  5
22
102
{ACAD_REACTORS
330
1A
102
}
330
1A
100
AcDbPlotSettings
  1

  2
none_device
  4

  6

 40
0.0
 41
0.0
 42
0.0
 43
0.0
 44
0.0
 45
0.0
 46
0.0
 47
0.0
 48
0.0
 49
0.0
140
0.0
141
0.0
142
1.0
143
1.0
 70
  1712
 72
     0
 73
     0
 74
     0
  7

 75
     0
 76
     0
 77
     2
 78
   300
147
1.0
148
0.0
149
0.0
100
AcDbLayout
  1
Model
 70
     1
 71
     0
 10
0.0
 20
0.0
 11
12.0
 21
9.0
 12
0.0
 22
0.0
 32
0.0
 14
1.000000000000000E+20
 24
1.000000000000000E+20
 34
1.000000000000000E+20
 15
-1.000000000000000E+20
 25
-1.000000000000000E+20
 35
-1.000000000000000E+20
146
0.0
 13
0.0
 23
0.0
 33
0.0
 16
1.0
 26
0.0
 36
0.0
 17
0.0
 27
1.0
 37
0.0
 76
     0
330
1F
331
29
  0
MATERIAL
  5
3D
102
{ACAD_REACTORS
330
3B
102
}
330
3B
100
AcDbMaterial
  1
ByBlock
 72
     1
 94
      127
  0
MATERIAL
  5
3C
102
{ACAD_REACTORS
330
3B
102
}
330
3B
100
AcDbMaterial
  1
ByLayer
 72
     1
 94
      127
  0
MATERIAL
  5
3E
102
{ACAD_REACTORS
330
3B
102
}
330
3B
100
AcDbMaterial
  1
Global
 72
     1
 94
      127
  0
MLINESTYLE
  5
18
102
{ACAD_REACTORS
330
17
102
}
330
17
100
AcDbMlineStyle
  2
Standard
 70
     0
  3

 62
   256
 51
90.0
 52
90.0
 71
     2
 49
0.5
 62
   256
  6
BYLAYER
 49
-0.5
 62
   256
  6
BYLAYER
  0
ACDBPLACEHOLDER
  5
F
102
{ACAD_REACTORS
330
E
102
}
330
E
  0
VISUALSTYLE
  5
2F
102
{ACAD_REACTORS
330
2A
102
}
330
2A
100
AcDbVisualStyle
  2
2dWireframe
 70
     4
177
     2
291
     0
 71
     0
176
     1
 72
     2
176
     1
 73
     0
176
     1
 90
        0
176
     1
 40
-0.6
176
     1
 41
-30.0
176
     1
 62
     5
 63
     7
421
 16777215
176
     1
 74
     1
176
     1
 91
        4
176
     1
 64
     7
176
     1
 65
   257
176
     1
 75
     1
176
     1
175
     1
176
     1
 42
1.0
176
     1
 92
        0
176
     1
 66
   257
176
     1
 43
1.0
176
     1
 76
     1
176
     1
 77
     6
176
     1
 78
     2
176
     1
 67
     7
176
     1
 79
     5
176
     1
170
     0
176
     1
171
     0
176
     1
290
     0
176
     1
 93
        1
176
     1
 44
0.0
176
     1
173
     0
176
     1
  0
VISUALSTYLE
  5
31
102
{ACAD_REACTORS
330
2A
102
}
330
2A
100
AcDbVisualStyle
  2
3D Hidden
 70
     6
177
     2
291
     0
 71
     1
176
     1
 72
     2
176
     1
 73
     2
176
     1
 90
        0
176
     1
 40
-0.6
176
     1
 41
-30.0
176
     1
 62
     5
 63
     7
421
 16777215
176
     1
 74
     2
176
     1
 91
        2
176
     1
 64
     7
176
     1
 65
   257
176
     1
 75
     2
176
     1
175
     1
176
     1
 42
40.0
176
     1
 92
        0
176
     1
 66
   257
176
     1
 43
1.0
176
     1
 76
     1
176
     1
 77
     6
176
     1
 78
     2
176
     1
 67
     7
176
     1
 79
     3
176
     1
170
     0
176
     1
171
     0
176
     1
290
     0
176
     1
 93
        1
176
     1
 44
0.0
176
     1
173
     0
176
     1
  0
VISUALSTYLE
  5
30
102
{ACAD_REACTORS
330
2A
102
}
330
2A
100
AcDbVisualStyle
  2
3dWireframe
 70
     5
177
     2
291
     0
 71
     0
176
     1
 72
     2
176
     1
 73
     0
176
     1
 90
        0
176
     1
 40
-0.6
176
     1
 41
-30.0
176
     1
 62
     5
 63
     7
421
 16777215
176
     1
 74
     1
176
     1
 91
        4
176
     1
 64
     7
176
     1
 65
   257
176
     1
 75
     1
176
     1
175
     1
176
     1
 42
1.0
176
     1
 92
        0
176
     1
 66
   257
176
     1
 43
1.0
176
     1
 76
     1
176
     1
 77
     6
176
     1
 78
     2
176
     1
 67
     7
176
     1
 79
     5
176
     1
170
     0
176
     1
171
     0
176
     1
290
     0
176
     1
 93
        1
176
     1
 44
0.0
176
     1
173
     0
176
     1
  0
VISUALSTYLE
  5
32
102
{ACAD_REACTORS
330
2A
102
}
330
2A
100
AcDbVisualStyle
  2
Basic
 70
     7
177
     2
291
     1
 71
     1
176
     1
 72
     0
176
     1
 73
     1
176
     1
 90
        0
176
     1
 40
-0.6
176
     1
 41
-30.0
176
     1
 62
     5
 63
     7
421
 16777215
176
     1
 74
     0
176
     1
 91
        4
176
     1
 64
     7
176
     1
 65
   257
176
     1
 75
     1
176
     1
175
     1
176
     1
 42
1.0
176
     1
 92
        8
176
     1
 66
     7
176
     1
 43
1.0
176
     1
 76
     1
176
     1
 77
     6
176
     1
 78
     2
176
     1
 67
     7
176
     1
 79
     5
176
     1
170
     0
176
     1
171
     0
176
     1
290
     0
176
     1
 93
        1
176
     1
 44
0.0
176
     1
173
     0
176
     1
  0
VISUALSTYLE
  5
36
102
{ACAD_REACTORS
330
2A
102
}
330
2A
100
AcDbVisualStyle
  2
Brighten
 70
    12
177
     2
291
     1
 71
     2
176
     1
 72
     2
176
     1
 73
     0
176
     1
 90
        0
176
     1
 40
-0.6
176
     1
 41
-30.0
176
     1
 62
     5
 63
     7
421
 16777215
176
     1
 74
     1
176
     1
 91
        4
176
     1
 64
     7
176
     1
 65
   257
176
     1
 75
     1
176
     1
175
     1
176
     1
 42
1.0
176
     1
 92
        8
176
     1
 66
     7
176
     1
 43
1.0
176
     1
 76
     1
176
     1
 77
     6
176
     1
 78
     2
176
     1
 67
     7
176
     1
 79
     5
176
     1
170
     0
176
     1
171
     0
176
     1
290
     0
176
     1
 93
        1
176
     1
 44
50.0
176
     1
173
     0
176
     1
  0
VISUALSTYLE
  5
3A
102
{ACAD_REACTORS
330
2A
102
}
330
2A
100
AcDbVisualStyle
  2
ColorChange
 70
    16
177
     2
291
     1
 71
     2
176
     1
 72
     2
176
     1
 73
     3
176
     1
 90
        0
176
     1
 40
-0.6
176
     1
 41
-30.0
176
     1
 62
     5
 63
     8
421
  8421504
176
     1
 74
     1
176
     1
 91
        4
176
     1
 64
     7
176
     1
 65
   257
176
     1
 75
     1
176
     1
175
     1
176
     1
 42
1.0
176
     1
 92
        8
176
     1
 66
     8
424
  8421504
176
     1
 43
1.0
176
     1
 76
     1
176
     1
 77
     6
176
     1
 78
     2
176
     1
 67
     7
176
     1
 79
     5
176
     1
170
     0
176
     1
171
     0
176
     1
290
     0
176
     1
 93
        1
176
     1
 44
0.0
176
     1
173
     0
176
     1
  0
VISUALSTYLE
  5
34
102
{ACAD_REACTORS
330
2A
102
}
330
2A
100
AcDbVisualStyle
  2
Conceptual
 70
     9
177
     2
291
     0
 71
     3
176
     1
 72
     2
176
     1
 73
     0
176
     1
 90
        0
176
     1
 40
-0.6
176
     1
 41
-30.0
176
     1
 62
     5
 63
     7
421
 16777215
176
     1
 74
     2
176
     1
 91
        2
176
     1
 64
     7
176
     1
 65
   257
176
     1
 75
     1
176
     1
175
     1
176
     1
 42
40.0
176
     1
 92
        8
176
     1
 66
     7
176
     1
 43
1.0
176
     1
 76
     1
176
     1
 77
     6
176
     1
 78
     2
176
     1
 67
     7
176
     1
 79
     3
176
     1
170
     0
176
     1
171
     0
176
     1
290
     0
176
     1
 93
        1
176
     1
 44
0.0
176
     1
173
     0
176
     1
  0
VISUALSTYLE
  5
35
102
{ACAD_REACTORS
330
2A
102
}
330
2A
100
AcDbVisualStyle
  2
Dim
 70
    11
177
     2
291
     1
 71
     2
176
     1
 72
     2
176
     1
 73
     0
176
     1
 90
        0
176
     1
 40
-0.6
176
     1
 41
-30.0
176
     1
 62
     5
 63
     7
421
 16777215
176
     1
 74
     1
176
     1
 91
        4
176
     1
 64
     7
176
     1
 65
   257
176
     1
 75
     1
176
     1
175
     1
176
     1
 42
1.0
176
     1
 92
        8
176
     1
 66
     7
176
     1
 43
1.0
176
     1
 76
     1
176
     1
 77
     6
176
     1
 78
     2
176
     1
 67
     7
176
     1
 79
     5
176
     1
170
     0
176
     1
171
     0
176
     1
290
     0
176
     1
 93
        1
176
     1
 44
-50.0
176
     1
173
     0
176
     1
  0
VISUALSTYLE
  5
39
102
{ACAD_REACTORS
330
2A
102
}
330
2A
100
AcDbVisualStyle
  2
Facepattern
 70
    15
177
     2
291
     1
 71
     2
176
     1
 72
     2
176
     1
 73
     0
176
     1
 90
        0
176
     1
 40
-0.6
176
     1
 41
-30.0
176
     1
 62
     5
 63
     7
421
 16777215
176
     1
 74
     1
176
     1
 91
        4
176
     1
 64
     7
176
     1
 65
   257
176
     1
 75
     1
176
     1
175
     1
176
     1
 42
1.0
176
     1
 92
        8
176
     1
 66
     7
176
     1
 43
1.0
176
     1
 76
     1
176
     1
 77
     6
176
     1
 78
     2
176
     1
 67
     7
176
     1
 79
     5
176
     1
170
     0
176
     1
171
     0
176
     1
290
     0
176
     1
 93
        1
176
     1
 44
0.0
176
     1
173
     0
176
     1
  0
VISUALSTYLE
  5
2B
102
{ACAD_REACTORS
330
2A
102
}
330
2A
100
AcDbVisualStyle
  2
Flat
 70
     0
177
     2
291
     1
 71
     2
176
     1
 72
     1
176
     1
 73
     1
176
     1
 90
        2
176
     1
 40
-0.6
176
     1
 41
30.0
176
     1
 62
     5
 63
     7
421
 16777215
176
     1
 74
     0
176
     1
 91
        4
176
     1
 64
     7
176
     1
 65
   257
176
     1
 75
     1
176
     1
175
     1
176
     1
 42
1.0
176
     1
 92
        8
176
     1
 66
     7
176
     1
 43
1.0
176
     1
 76
     1
176
     1
 77
     6
176
     1
 78
     2
176
     1
 67
     7
176
     1
 79
     5
176
     1
170
     0
176
     1
171
     0
176
     1
290
     0
176
     1
 93
       13
176
     1
 44
0.0
176
     1
173
     0
176
     1
  0
VISUALSTYLE
  5
2C
102
{ACAD_REACTORS
330
2A
102
}
330
2A
100
AcDbVisualStyle
  2
FlatWithEdges
 70
     1
177
     2
291
     1
 71
     2
176
     1
 72
     1
176
     1
 73
     1
176
     1
 90
        2
176
     1
 40
-0.6
176
     1
 41
30.0
176
     1
 62
     5
 63
     7
421
 16777215
176
     1
 74
     1
176
     1
 91
        4
176
     1
 64
     7
176
     1
 65
   257
176
     1
 75
     1
176
     1
175
     1
176
     1
 42
1.0
176
     1
 92
        0
176
     1
 66
   257
176
     1
 43
1.0
176
     1
 76
     1
176
     1
 77
     6
176
     1
 78
     2
176
     1
 67
     7
176
     1
 79
     5
176
     1
170
     0
176
     1
171
     0
176
     1
290
     0
176
     1
 93
       13
176
     1
 44
0.0
176
     1
173
     0
176
     1
  0
VISUALSTYLE
  5
2D
102
{ACAD_REACTORS
330
2A
102
}
330
2A
100
AcDbVisualStyle
  2
Gouraud
 70
     2
177
     2
291
     1
 71
     2
176
     1
 72
     2
176
     1
 73
     1
176
     1
 90
        2
176
     1
 40
-0.6
176
     1
 41
30.0
176
     1
 62
     5
 63
     7
421
 16777215
176
     1
 74
     0
176
     1
 91
        4
176
     1
 64
     7
176
     1
 65
   257
176
     1
 75
     1
176
     1
175
     1
176
     1
 42
1.0
176
     1
 92
        0
176
     1
 66
     7
176
     1
 43
1.0
176
     1
 76
     1
176
     1
 77
     6
176
     1
 78
     2
176
     1
 67
     7
176
     1
 79
     5
176
     1
170
     0
176
     1
171
     0
176
     1
290
     0
176
     1
 93
       13
176
     1
 44
0.0
176
     1
173
     0
176
     1
  0
VISUALSTYLE
  5
2E
102
{ACAD_REACTORS
330
2A
102
}
330
2A
100
AcDbVisualStyle
  2
GouraudWithEdges
 70
     3
177
     2
291
     1
 71
     2
176
     1
 72
     2
176
     1
 73
     1
176
     1
 90
        2
176
     1
 40
-0.6
176
     1
 41
30.0
176
     1
 62
     5
 63
     7
421
 16777215
176
     1
 74
     1
176
     1
 91
        4
176
     1
 64
     7
176
     1
 65
   257
176
     1
 75
     1
176
     1
175
     1
176
     1
 42
1.0
176
     1
 92
        0
176
     1
 66
   257
176
     1
 43
1.0
176
     1
 76
     1
176
     1
 77
     6
176
     1
 78
     2
176
     1
 67
     7
176
     1
 79
     5
176
     1
170
     0
176
     1
171
     0
176
     1
290
     0
176
     1
 93
       13
176
     1
 44
0.0
176
     1
173
     0
176
     1
  0
VISUALSTYLE
  5
38
102
{ACAD_REACTORS
330
2A
102
}
330
2A
100
AcDbVisualStyle
  2
Linepattern
 70
    14
177
     2
291
     1
 71
     2
176
     1
 72
     2
176
     1
 73
     0
176
     1
 90
        0
176
     1
 40
-0.6
176
     1
 41
-30.0
176
     1
 62
     5
 63
     7
421
 16777215
176
     1
 74
     1
176
     1
 91
        4
176
     1
 64
     7
176
     1
 65
   257
176
     1
 75
     7
176
     1
175
     7
176
     1
 42
1.0
176
     1
 92
        8
176
     1
 66
     7
176
     1
 43
1.0
176
     1
 76
     1
176
     1
 77
     6
176
     1
 78
     2
176
     1
 67
     7
176
     1
 79
     5
176
     1
170
     0
176
     1
171
     0
176
     1
290
     0
176
     1
 93
        1
176
     1
 44
0.0
176
     1
173
     0
176
     1
  0
VISUALSTYLE
  5
33
102
{ACAD_REACTORS
330
2A
102
}
330
2A
100
AcDbVisualStyle
  2
Realistic
 70
     8
177
     2
291
     0
 71
     2
176
     1
 72
     2
176
     1
 73
     0
176
     1
 90
        0
176
     1
 40
-0.6
176
     1
 41
-30.0
176
     1
 62
     5
 63
     7
421
 16777215
176
     1
 74
     1
176
     1
 91
        0
176
     1
 64
     7
176
     1
 65
   257
176
     1
 75
     1
176
     1
175
     1
176
     1
 42
1.0
176
     1
 92
        8
176
     1
 66
     8
424
  7895160
176
     1
 43
1.0
176
     1
 76
     1
176
     1
 77
     6
176
     1
 78
     2
176
     1
 67
     7
176
     1
 79
     5
176
     1
170
     0
176
     1
171
     0
176
     1
290
     0
176
     1
 93
       13
176
     1
 44
0.0
176
     1
173
     0
176
     1
  0
VISUALSTYLE
  5
37
102
{ACAD_REACTORS
330
2A
102
}
330
2A
100
AcDbVisualStyle
  2
Thicken
 70
    13
177
     2
291
     1
 71
     2
176
     1
 72
     2
176
     1
 73
     0
176
     1
 90
        0
176
     1
 40
-0.6
176
     1
 41
-30.0
176
     1
 62
     5
 63
     7
421
 16777215
176
     1
 74
     1
176
     1
 91
        4
176
     1
 64
     7
176
     1
 65
   257
176
     1
 75
     1
176
     1
175
     1
176
     1
 42
1.0
176
     1
 92
       12
176
     1
 66
     7
176
     1
 43
1.0
176
     1
 76
     1
176
     1
 77
     6
176
     1
 78
     2
176
     1
 67
     7
176
     1
 79
     5
176
     1
170
     0
176
     1
171
     0
176
     1
290
     0
176
     1
 93
        1
176
     1
 44
0.0
176
     1
173
     0
176
     1
  0
ENDSEC
  0
EOF
